<svg xmlns="http://www.w3.org/2000/svg" viewBox="0 0 720 460" role="img" aria-label="市集白噪音備用插圖">
  <defs>
    <linearGradient id="soft" x1="0" x2="1" y1="0" y2="1">
      <stop offset="0" stop-color="#f8fdff"/>
      <stop offset=".45" stop-color="#e3fbff"/>
      <stop offset="1" stop-color="#fff0c9"/>
    </linearGradient>
  </defs>
  <rect width="720" height="460" fill="url(#soft)"/>
  <path fill="#0b4f86" opacity=".08" d="M0 300c110-74 202-82 304-34 111 52 230 50 416-38v232H0z"/>
  <g fill="none" stroke-linecap="round">
    <path stroke="#0b4f86" stroke-width="8" opacity=".24" d="M118 154c62 62 62 174 0 236"/>
    <path stroke="#0ea5c7" stroke-width="8" opacity=".38" d="M170 190c36 38 36 112 0 150"/>
    <path stroke="#ffb45f" stroke-width="8" opacity=".48" d="M224 220c18 22 18 68 0 90"/>
    <path stroke="#0b4f86" stroke-width="8" opacity=".24" d="M602 154c-62 62-62 174 0 236"/>
    <path stroke="#0ea5c7" stroke-width="8" opacity=".38" d="M550 190c-36 38-36 112 0 150"/>
    <path stroke="#ffb45f" stroke-width="8" opacity=".48" d="M496 220c-18 22-18 68 0 90"/>
  </g>
  <rect x="282" y="140" width="156" height="168" rx="18" fill="#fff7df"/>
  <path fill="#0b4f86" opacity=".84" d="M262 118h196l-26 74H288z"/>
  <circle cx="332" cy="240" r="22" fill="#0ea5c7"/><circle cx="382" cy="240" r="22" fill="#ffcf6a"/>
  <path fill="none" stroke="#0b4f86" stroke-linecap="round" stroke-width="8" opacity=".32" d="M276 356h168M304 388h112"/>
  <g fill="#102536" opacity=".5">
    <circle cx="318" cy="342" r="10"/><path d="M313 352h10l8 34h-26z"/>
    <circle cx="404" cy="342" r="10"/><path d="M399 352h10l8 34h-26z"/>
  </g>
</svg>
