<svg xmlns="http://www.w3.org/2000/svg" viewBox="0 0 720 460" role="img" aria-label="城市夜間漫遊插圖">
  <defs>
    <linearGradient id="city" x1="0" x2="1" y1="0" y2="1">
      <stop offset="0" stop-color="#102536"/>
      <stop offset=".58" stop-color="#0b4f86"/>
      <stop offset="1" stop-color="#18c5d6"/>
    </linearGradient>
  </defs>
  <rect width="720" height="460" fill="url(#city)"/>
  <path fill="#fff" opacity=".09" d="M0 305c134-78 238-70 350-20 110 49 223 53 370-42v217H0z"/>
  <g fill="#082033" opacity=".9">
    <rect x="58" y="166" width="82" height="196"/><rect x="164" y="106" width="116" height="256"/><rect x="306" y="152" width="90" height="210"/><rect x="426" y="84" width="134" height="278"/><rect x="588" y="142" width="78" height="220"/>
  </g>
  <g fill="#fff4a8" opacity=".82">
    <rect x="82" y="196" width="16" height="18"/><rect x="112" y="240" width="16" height="18"/>
    <rect x="194" y="144" width="18" height="18"/><rect x="234" y="188" width="18" height="18"/><rect x="194" y="260" width="18" height="18"/>
    <rect x="456" y="120" width="20" height="18"/><rect x="504" y="174" width="20" height="18"/><rect x="456" y="248" width="20" height="18"/>
    <rect x="612" y="182" width="16" height="18"/><rect x="612" y="248" width="16" height="18"/>
  </g>
  <path fill="none" stroke="#dffcff" stroke-linecap="round" stroke-width="10" opacity=".34" d="M96 398c112-56 217-64 318-20 66 29 130 28 214-12"/>
  <path fill="none" stroke="#ffcf6a" stroke-linecap="round" stroke-width="4" opacity=".76" d="M96 398c112-56 217-64 318-20 66 29 130 28 214-12"/>
  <g fill="#dffcff" opacity=".92">
    <circle cx="170" cy="78" r="4"/><circle cx="250" cy="62" r="6"/><circle cx="392" cy="80" r="4"/><circle cx="604" cy="74" r="5"/>
  </g>
</svg>
