<svg xmlns="http://www.w3.org/2000/svg" viewBox="0 0 720 460" role="img" aria-label="亞洲街食直播插圖">
  <defs>
    <linearGradient id="sky" x1="0" x2="1" y1="0" y2="1">
      <stop offset="0" stop-color="#f8fdff"/>
      <stop offset=".55" stop-color="#b9f4ff"/>
      <stop offset="1" stop-color="#ffe0a3"/>
    </linearGradient>
    <linearGradient id="awning" x1="0" x2="1">
      <stop offset="0" stop-color="#0b4f86"/>
      <stop offset=".48" stop-color="#10c7d8"/>
      <stop offset="1" stop-color="#ffb45f"/>
    </linearGradient>
  </defs>
  <rect width="720" height="460" fill="url(#sky)"/>
  <path fill="#ffffff" opacity=".58" d="M0 288c106-48 190-44 285-8 96 37 207 45 435-34v214H0z"/>
  <path fill="#0b4f86" opacity=".12" d="M92 184h536v208H92z"/>
  <path fill="#102536" d="M110 188h500v34H110z" opacity=".72"/>
  <path fill="url(#awning)" d="M92 122h536l-36 86H128z"/>
  <path fill="#fff" opacity=".55" d="M166 122h62l-34 86h-66zm144 0h62l-34 86h-66zm144 0h62l-34 86h-66z"/>
  <rect x="126" y="246" width="142" height="94" rx="12" fill="#fff7df"/>
  <rect x="302" y="232" width="148" height="108" rx="12" fill="#e9fbff"/>
  <rect x="490" y="250" width="104" height="90" rx="12" fill="#fff0c9"/>
  <circle cx="188" cy="292" r="16" fill="#ff7a3d"/>
  <circle cx="226" cy="292" r="16" fill="#17b7c9"/>
  <circle cx="344" cy="286" r="14" fill="#ffcf6a"/>
  <circle cx="386" cy="286" r="14" fill="#0ea5c7"/>
  <path fill="none" stroke="#0b4f86" stroke-linecap="round" stroke-width="10" opacity=".26" d="M116 382h492M150 410h420"/>
  <g fill="#102536" opacity=".62">
    <circle cx="130" cy="370" r="12"/><path d="M124 382h12l8 38h-28z"/>
    <circle cx="604" cy="365" r="12"/><path d="M598 377h12l8 38h-28z"/>
    <circle cx="456" cy="374" r="10"/><path d="M451 384h10l8 32h-26z"/>
  </g>
  <g fill="#fff4b5" opacity=".9">
    <circle cx="150" cy="86" r="7"/><circle cx="250" cy="78" r="5"/><circle cx="450" cy="86" r="6"/><circle cx="570" cy="76" r="5"/>
  </g>
</svg>
