<svg xmlns="http://www.w3.org/2000/svg" viewBox="0 0 512 512" role="img" aria-label="Fantasy Tune icon">
  <defs>
    <linearGradient id="moon" x1="54" x2="454" y1="398" y2="96" gradientUnits="userSpaceOnUse">
      <stop offset="0" stop-color="#0ea5e9"/>
      <stop offset=".45" stop-color="#e8fbff"/>
      <stop offset=".72" stop-color="#8a6dff"/>
      <stop offset="1" stop-color="#ffe49a"/>
    </linearGradient>
    <linearGradient id="note" x1="180" x2="342" y1="422" y2="72" gradientUnits="userSpaceOnUse">
      <stop offset="0" stop-color="#0756e8"/>
      <stop offset=".45" stop-color="#12d7f1"/>
      <stop offset=".72" stop-color="#805cff"/>
      <stop offset="1" stop-color="#ff94ef"/>
    </linearGradient>
    <linearGradient id="wave" x1="170" x2="312" y1="346" y2="404" gradientUnits="userSpaceOnUse">
      <stop offset="0" stop-color="#f8ffff"/>
      <stop offset=".4" stop-color="#3ff1ff"/>
      <stop offset="1" stop-color="#1764f2"/>
    </linearGradient>
  </defs>
  <path
    fill="url(#moon)"
    d="M396 76c-40 72-43 163-5 235 18 35 43 62 72 82-58 43-139 54-209 23C154 372 107 255 151 155c25-57 73-96 128-112-36 34-57 82-57 133 0 101 82 183 183 183 31 0 61-8 87-22-20 51-58 93-107 117-92 44-202 5-246-87-40-84-10-184 69-232 44-27 96-34 144-22 14-15 28-28 44-37Z"
    opacity=".92"
  />
  <path
    fill="url(#note)"
    d="M294 61c-35 18-56 52-56 91v172c-21-12-52-15-83-5-51 17-82 59-70 96 13 38 67 56 119 39 43-14 72-48 72-84V169c32 25 75 25 112 5 25-14 43-35 52-64-45 18-93 5-122-34-7-9-15-14-24-15Z"
  />
  <path
    fill="url(#wave)"
    d="M128 378c43 24 92 20 143-10-9 35-39 63-80 77-40 13-80 6-96-17-11-17 3-37 33-50Z"
    opacity=".86"
  />
  <path fill="#fff" d="M276 89c-18 19-27 45-27 75v197c-8-19-38-29-74-19 36-18 70-12 86 4V153c0-27 5-49 15-64Z" opacity=".5" />
  <path fill="#fff5ad" d="m397 227 16 34 35 15-35 16-16 34-16-34-34-16 34-15 16-34Z" />
  <path fill="#fff5ad" d="m183 145 9 20 20 9-20 9-9 20-9-20-20-9 20-9 9-20Z" opacity=".9" />
  <path fill="none" stroke="#fff5ad" stroke-linecap="round" stroke-width="3" d="m183 174 35-42 31 27" opacity=".9" />
  <circle cx="218" cy="132" r="5" fill="#fff5ad" />
  <circle cx="249" cy="159" r="5" fill="#fff5ad" />
  <circle cx="176" cy="214" r="10" fill="#b9fbff" opacity=".85" />
  <circle cx="214" cy="184" r="7" fill="#e8fdff" opacity=".85" />
  <circle cx="314" cy="331" r="5" fill="#fff5ad" />
  <circle cx="238" cy="392" r="6" fill="#dcfbff" opacity=".78" />
</svg>
