<svg xmlns="http://www.w3.org/2000/svg" viewBox="0 0 512 512" role="img" aria-label="Fantasy Tune icon">
  <defs>
    <linearGradient id="note" x1="130" x2="386" y1="430" y2="70" gradientUnits="userSpaceOnUse">
      <stop offset="0" stop-color="#1058e8"/>
      <stop offset=".42" stop-color="#10d9f2"/>
      <stop offset=".74" stop-color="#8a6dff"/>
      <stop offset="1" stop-color="#ffe07a"/>
    </linearGradient>
    <linearGradient id="shine" x1="176" x2="360" y1="130" y2="340" gradientUnits="userSpaceOnUse">
      <stop offset="0" stop-color="#fff" stop-opacity=".92"/>
      <stop offset=".5" stop-color="#fff" stop-opacity=".16"/>
      <stop offset="1" stop-color="#fff" stop-opacity=".5"/>
    </linearGradient>
  </defs>
  <path
    fill="url(#note)"
    d="M292 74c-36 18-58 53-58 91v151c-22-12-54-15-86-4-51 17-83 61-70 99s67 56 119 39c41-14 70-45 74-78h1V192c25 25 67 31 102 17 32-13 54-40 60-76-40 20-88 6-114-30-8-11-17-21-28-29Z"
  />
  <path
    fill="url(#shine)"
    d="M293 94c-22 18-35 44-35 73v189c-7-16-33-24-67-18-39 7-70 32-70 56 0 9 5 17 14 23-23-2-40-13-45-28-8-25 20-55 63-68 37-12 74-5 92 14V165c0-31 18-58 48-71Z"
    opacity=".72"
  />
  <path fill="#fff8c7" d="m151 175 16 34 35 15-35 16-16 34-16-34-34-16 34-15 16-34Z" opacity=".95" />
  <path fill="#70f3ff" d="M130 383c38 19 82 16 126-8-20 32-83 62-126 8Z" opacity=".78" />
  <circle cx="205" cy="376" r="12" fill="#dffcff" opacity=".75" />
  <circle cx="236" cy="348" r="8" fill="#fff" opacity=".7" />
</svg>
